<svg xmlns="http://www.w3.org/2000/svg" width="160" height="58" stroke="#000" stroke-linecap="round" stroke-linejoin="round" fill="#fff" fill-rule="evenodd"><path d="M60.1448 25.5252h4.5193c1.4012 0 2.522-.1914 3.3506-.5697s1.467-.9262 1.9094-1.6366.7406-1.5872.8966-2.6252.2343-2.247.2343-3.617-.08-2.5766-.2343-3.6165-.4803-1.9295-.9747-2.666-1.2008-1.2823-2.0655-1.6365-2.0516-.5333-3.5067-.5333h-4.13zm-7.946-24.5246h12.7797c9.35 0 14.0265 5.5298 14.0265 16.5913 0 3.28-.5064 6.0995-1.5212 8.4545s-2.792 4.2474-5.338 5.6782l8.5705 25.7988H72.3l-7.5257-24.5512h-4.6294v24.5512h-7.946zm33.193 0h11.921c2.2016 0 4.103.291 5.7643.875s3.1683 1.614 4.5194 3.0936c1.3448 1.47 2.309 3.257 2.806 5.2.5204 1.9844.7806 4.6708.7806 8.0596 0 2.4872-.1962 4.268-.4805 6.0406s-1.207 4.858-4.8315 6.9505c-2.2657 1.3085-5.5182 1.7788-8.4784 1.7788h-4.05v24.5246h-7.946zm7.946 24.5246h3.819c1.6112 0 2.856-.2095 3.7428-.6308s1.533-.989 1.9474-1.7096.6605-1.5957.7406-2.6194.116-2.1656.116-3.4232c0-1.1642-.04-2.2692-.116-3.3174s-.3123-1.954-.7006-2.7275-1.0007-1.3736-1.8312-1.8153-2.0257-.6633-3.583-.6633h-4.129zm49.0107 19.3755c0 1.7464-.3242 3.413-.9747 5.0007s-1.545 2.9776-2.688 4.168c-1.152 1.1973-2.5127 2.1662-4.013 2.8576-1.5527.7193-3.2412 1.0852-4.9476 1.0726-1.507 0-3.0383-.2117-4.5975-.635-1.5397-.414-2.9743-1.1587-4.207-2.1837-1.247-1.0318-2.2717-2.3956-3.0784-4.09s-1.207-3.8365-1.207-6.4314v-31.139c0-1.8318.3124-3.5718.9347-5.1595s1.507-2.963 2.65-4.1273 2.5058-2.076 4.09-2.7396 3.3387-.993 5.26-.993c1.8174 0 3.5067.3317 5.064.993s2.908 1.5876 4.05 2.7782 2.0415 2.6195 2.688 4.2863.9747 3.4598.9747 5.4382v3.1748h-7.9458V14.472c0-1.5876-.4405-2.9635-1.325-4.1277-.8408-1.1446-2.1805-1.7972-3.5847-1.746-1.9734 0-3.2865.6226-3.9348 1.8664s-.975 2.8188-.975 4.7216v28.8965c0 1.6404.3503 3.0162 1.0528 4.1275s1.9615 1.6688 3.779 1.6688c.5203 0 1.0807-.0936 1.6752-.2787s1.1408-.4884 1.6372-.916.8966-1.0054 1.207-1.746.4684-1.67.4684-2.7784v-2.778h7.9458zm15.5718-15.712c0-2.064-1.6412-3.7366-3.6627-3.7366h-19.85v7.469h16.1842v8.3343h-2.494l6.2007 8.9084 6.2006-8.9084h-2.5778zM18.5355 32.9946v11.188c0 2.328.3903 4.3552 1.169 6.073s1.8053 3.1487 3.0783 4.2863 2.702 1.9985 4.283 2.5806a13.802 13.802 0 0 0 4.7917.8732c1.635-.0044 3.2568-.3 4.7916-.8732 1.5852-.582 3.0122-1.445 4.2833-2.5806s2.2977-2.5644 3.0782-4.2863 1.169-3.745 1.169-6.073v-18.643l-14.2408-.0203-.02 7.4754h6.3107v11.19c0 1.9577-.5324 3.3986-1.5972 4.327-1.0483.9207-2.394 1.4156-3.7788 1.4-1.385.0256-2.7305-.4693-3.7788-1.4-1.0648-.926-1.5973-2.3692-1.5973-4.327v-29.847c0-1.958.5325-3.4 1.5973-4.327 1.0483-.9207 2.394-1.4157 3.7788-1.39 1.385-.0256 2.7305.4694 3.7788 1.39 1.0648.926 1.5972 2.3688 1.5972 4.327v2.8576h7.946v-2.8576c0-2.2755-.3903-4.2862-1.17-6.0325s-1.8053-3.1893-3.0782-4.327-2.702-1.9987-4.2832-2.5808a13.804 13.804 0 0 0-4.7916-.8731 13.803 13.803 0 0 0-4.7916.8731c-1.5853.582-3.0123 1.445-4.2832 2.5808S20.48 6.5588 19.7004 8.305s-1.17 3.757-1.17 6.0325v11.1876h-8.124V17.193h2.494L6.7006 8.2847.5 17.193h2.578v12.069c0 2.0638 1.6413 3.7368 3.6627 3.7368h11.795z" stroke="none" fill="#2da6b0"/></svg>